<svg width="55" height="55" viewBox="0 0 55 55" fill="none" xmlns="http://www.w3.org/2000/svg">
<g clip-path="url(#clip0)">
<path d="M55 25.4361C55 25.4289 55 25.4218 55 25.4147C54.9937 24.7496 54.7067 24.1151 54.2103 23.6716L48.7838 18.8267C48.1195 18.2338 47.1016 18.2917 46.5082 18.9555C45.9157 19.6193 45.9736 20.6377 46.637 21.2307L49.5429 23.8247H21.8524C21.0719 18.517 16.496 14.4299 10.9851 14.4299C4.92798 14.4299 0 19.3671 0 25.4361C0 31.505 4.92798 36.4422 10.9851 36.4422C16.496 36.4422 21.0719 32.3551 21.8524 27.0474H49.5429L46.6375 29.6419C45.9736 30.2344 45.9157 31.2532 46.5086 31.9166C46.8267 32.2733 47.2677 32.455 47.7108 32.455C48.0931 32.455 48.4762 32.3199 48.7838 32.0454L54.2103 27.2005C54.7067 26.757 54.9937 26.123 55 25.4575C55 25.4507 55 25.4436 55 25.4369C55 25.4365 55 25.4365 55 25.4361ZM10.9851 33.2195C6.70464 33.2195 3.22266 29.7279 3.22266 25.4361C3.22266 21.1442 6.70464 17.6526 10.9851 17.6526C14.7143 17.6526 17.8379 20.3037 18.5802 23.8247H13.4076C12.5176 23.8247 11.7963 24.5461 11.7963 25.4361C11.7963 26.3261 12.5176 27.0474 13.4076 27.0474H18.5802C17.8379 30.5688 14.7143 33.2195 10.9851 33.2195Z" fill="white"/>
<path d="M32.3273 12.4602C32.3273 13.3502 33.0486 14.0715 33.9386 14.0715H51.4681C52.3581 14.0715 53.0794 13.3502 53.0794 12.4602C53.0794 11.5702 52.3581 10.8489 51.4681 10.8489H33.9386C33.0486 10.8489 32.3273 11.5702 32.3273 12.4602Z" fill="white"/>
<path d="M22.2754 8.70117H35.8659C36.7555 8.70117 37.4773 7.97985 37.4773 7.08984C37.4773 6.19984 36.7555 5.47852 35.8659 5.47852H22.2754C21.3858 5.47852 20.6641 6.19984 20.6641 7.08984C20.6641 7.97985 21.3858 8.70117 22.2754 8.70117V8.70117Z" fill="white"/>
<path d="M41.2072 8.70117H43.7207C44.6107 8.70117 45.3321 7.97985 45.3321 7.08984C45.3321 6.19984 44.6107 5.47852 43.7207 5.47852H41.2072C40.3172 5.47852 39.5959 6.19984 39.5959 7.08984C39.5959 7.97985 40.3172 8.70117 41.2072 8.70117Z" fill="white"/>
<path d="M23.0223 13.9631C22.1323 13.9631 21.411 14.6849 21.411 15.5745C21.411 16.4645 22.1323 17.1858 23.0223 17.1858H25.5358C26.4258 17.1858 27.1471 16.4645 27.1471 15.5745C27.1471 14.6849 26.4258 13.9631 25.5358 13.9631H23.0223Z" fill="white"/>
<path d="M27.688 33.2966C28.578 33.2966 29.2993 32.5753 29.2993 31.6853C29.2993 30.7953 28.578 30.074 27.688 30.074H25.1745C24.2845 30.074 23.5632 30.7953 23.5632 31.6853C23.5632 32.5753 24.2845 33.2966 25.1745 33.2966H27.688Z" fill="white"/>
<path d="M27.688 43.1841H10.1938C9.30376 43.1841 8.58244 43.9058 8.58244 44.7954C8.58244 45.6854 9.30376 46.4067 10.1938 46.4067H27.688C28.578 46.4067 29.2993 45.6854 29.2993 44.7954C29.2993 43.9058 28.578 43.1841 27.688 43.1841Z" fill="white"/>
<path d="M39.386 37.8137H25.7959C24.9059 37.8137 24.1846 38.5355 24.1846 39.425C24.1846 40.3151 24.9059 41.0364 25.7959 41.0364H39.386C40.276 41.0364 40.9974 40.3151 40.9974 39.425C40.9974 38.5355 40.276 37.8137 39.386 37.8137Z" fill="white"/>
<path d="M20.4546 41.0364C21.3446 41.0364 22.066 40.3151 22.066 39.425C22.066 38.5355 21.3446 37.8137 20.4546 37.8137H17.9411C17.0511 37.8137 16.3298 38.5355 16.3298 39.425C16.3298 40.3151 17.0511 41.0364 17.9411 41.0364H20.4546Z" fill="white"/>
<path d="M38.6396 46.2988H36.1261C35.2361 46.2988 34.5148 47.0201 34.5148 47.9102C34.5148 48.8002 35.2361 49.5215 36.1261 49.5215H38.6396C39.5292 49.5215 40.2509 48.8002 40.2509 47.9102C40.2509 47.0201 39.5292 46.2988 38.6396 46.2988Z" fill="white"/>
</g>
<defs>
<clipPath id="clip0">
<rect width="55" height="55" fill="white"/>
</clipPath>
</defs>
</svg>
