<svg width="55" height="55" viewBox="0 0 55 55" fill="none" xmlns="http://www.w3.org/2000/svg">
<g clip-path="url(#clip0)">
<path d="M55 25.4358C55 25.4287 55 25.4215 55 25.4144C54.9937 24.7493 54.7067 24.1149 54.2103 23.6713L48.7838 18.8264C48.1195 18.2335 47.1016 18.2914 46.5082 18.9553C45.9157 19.6191 45.9736 20.6375 46.637 21.2304L49.5429 23.8245H21.8524C21.0719 18.5168 16.496 14.4297 10.9851 14.4297C4.92798 14.4297 0 19.3669 0 25.4358C0 31.5047 4.92798 36.4419 10.9851 36.4419C16.496 36.4419 21.0719 32.3549 21.8524 27.0471H49.5429L46.6375 29.6416C45.9736 30.2341 45.9157 31.253 46.5086 31.9164C46.8267 32.2731 47.2677 32.4547 47.7108 32.4547C48.0931 32.4547 48.4762 32.3196 48.7838 32.0452L54.2103 27.2003C54.7067 26.7568 54.9937 26.1227 55 25.4572C55 25.4505 55 25.4434 55 25.4367C55 25.4362 55 25.4362 55 25.4358ZM10.9851 33.2193C6.70464 33.2193 3.22266 29.7277 3.22266 25.4358C3.22266 21.144 6.70464 17.6523 10.9851 17.6523C14.7143 17.6523 17.8379 20.3035 18.5802 23.8245H13.4076C12.5176 23.8245 11.7963 24.5458 11.7963 25.4358C11.7963 26.3258 12.5176 27.0471 13.4076 27.0471H18.5802C17.8379 30.5686 14.7143 33.2193 10.9851 33.2193Z" fill="#070707"/>
<path d="M32.3273 12.4604C32.3273 13.3505 33.0486 14.0718 33.9386 14.0718H51.4681C52.3581 14.0718 53.0794 13.3505 53.0794 12.4604C53.0794 11.5704 52.3581 10.8491 51.4681 10.8491H33.9386C33.0486 10.8491 32.3273 11.5704 32.3273 12.4604Z" fill="#070707"/>
<path d="M22.2754 8.70117H35.8659C36.7555 8.70117 37.4773 7.97985 37.4773 7.08984C37.4773 6.19984 36.7555 5.47852 35.8659 5.47852H22.2754C21.3858 5.47852 20.6641 6.19984 20.6641 7.08984C20.6641 7.97985 21.3858 8.70117 22.2754 8.70117Z" fill="#070707"/>
<path d="M41.2073 8.70117H43.7208C44.6108 8.70117 45.3321 7.97985 45.3321 7.08984C45.3321 6.19984 44.6108 5.47852 43.7208 5.47852H41.2073C40.3173 5.47852 39.5959 6.19984 39.5959 7.08984C39.5959 7.97985 40.3173 8.70117 41.2073 8.70117Z" fill="#070707"/>
<path d="M23.0223 13.9629C22.1323 13.9629 21.411 14.6846 21.411 15.5742C21.411 16.4642 22.1323 17.1855 23.0223 17.1855H25.5358C26.4258 17.1855 27.1472 16.4642 27.1472 15.5742C27.1472 14.6846 26.4258 13.9629 25.5358 13.9629H23.0223Z" fill="#070707"/>
<path d="M27.6881 33.2969C28.5781 33.2969 29.2994 32.5756 29.2994 31.6855C29.2994 30.7955 28.5781 30.0742 27.6881 30.0742H25.1746C24.2846 30.0742 23.5632 30.7955 23.5632 31.6855C23.5632 32.5756 24.2846 33.2969 25.1746 33.2969H27.6881Z" fill="#070707"/>
<path d="M27.688 43.1841H10.1937C9.30372 43.1841 8.5824 43.9058 8.5824 44.7954C8.5824 45.6854 9.30372 46.4067 10.1937 46.4067H27.688C28.578 46.4067 29.2993 45.6854 29.2993 44.7954C29.2993 43.9058 28.578 43.1841 27.688 43.1841Z" fill="#070707"/>
<path d="M39.386 37.814H25.7959C24.9059 37.814 24.1846 38.5357 24.1846 39.4253C24.1846 40.3153 24.9059 41.0366 25.7959 41.0366H39.386C40.276 41.0366 40.9974 40.3153 40.9974 39.4253C40.9974 38.5357 40.276 37.814 39.386 37.814Z" fill="#070707"/>
<path d="M20.4547 41.0366C21.3447 41.0366 22.066 40.3153 22.066 39.4253C22.066 38.5357 21.3447 37.814 20.4547 37.814H17.9412C17.0512 37.814 16.3298 38.5357 16.3298 39.4253C16.3298 40.3153 17.0512 41.0366 17.9412 41.0366H20.4547Z" fill="#070707"/>
<path d="M38.6396 46.2988H36.1261C35.2361 46.2988 34.5148 47.0201 34.5148 47.9102C34.5148 48.8002 35.2361 49.5215 36.1261 49.5215H38.6396C39.5292 49.5215 40.2509 48.8002 40.2509 47.9102C40.2509 47.0201 39.5292 46.2988 38.6396 46.2988Z" fill="#070707"/>
</g>
<defs>
<clipPath id="clip0">
<rect width="55" height="55" fill="white"/>
</clipPath>
</defs>
</svg>
