<svg xmlns="http://www.w3.org/2000/svg" viewBox="0 0 395 395"><defs><style>.cls-1{fill:#8560a8;}.cls-2{fill:#fff;}</style></defs><title>Asset 2</title><g id="Layer_2" data-name="Layer 2"><g id="Layer_1-2" data-name="Layer 1"><circle class="cls-1" cx="197.5" cy="197.5" r="197.5"/><path class="cls-2" d="M275.37,108H261V95.76a5.19,5.19,0,0,0-4.55-5.26A5,5,0,0,0,251,95.6V108H145V95.76a5.19,5.19,0,0,0-4.55-5.26A5,5,0,0,0,135,95.6V108H121.57A25.57,25.57,0,0,0,96,133.57v133A25.51,25.51,0,0,0,121.59,292H275.37A25.52,25.52,0,0,0,301,266.6V133.72A25.76,25.76,0,0,0,275.37,108ZM290,266.75A15.27,15.27,0,0,1,274.72,282H121.33A15.26,15.26,0,0,1,106,266.81V133.5A15.55,15.55,0,0,1,121.5,118H135v17.79a5.18,5.18,0,0,0,4.56,5.25A5,5,0,0,0,145,136V118H251v17.79a5.18,5.18,0,0,0,4.56,5.25A5,5,0,0,0,261,136V118h13.66A15.34,15.34,0,0,1,290,133.34Z"/><path class="cls-2" d="M251.73,205H144.52a5.18,5.18,0,0,0-5.24,4.55,5,5,0,0,0,5,5.45H251.48a5.18,5.18,0,0,0,5.24-4.56A5,5,0,0,0,251.73,205Z"/><path class="cls-2" d="M251.73,242H144.52a5.18,5.18,0,0,0-5.24,4.55,5,5,0,0,0,5,5.45H251.48a5.19,5.19,0,0,0,5.24-4.56A5,5,0,0,0,251.73,242Z"/><path class="cls-2" d="M143.7,179h58a5.17,5.17,0,0,0,5.23-4.56,5,5,0,0,0-5-5.44H144a5.17,5.17,0,0,0-5.24,4.55A5,5,0,0,0,143.7,179Z"/></g></g></svg>