<svg xmlns="http://www.w3.org/2000/svg" viewBox="0 0 395 395"><defs><style>.cls-1{fill:#00bcd4;}.cls-2{fill:#fff;}</style></defs><title>Asset 3</title><g id="Layer_2" data-name="Layer 2"><g id="Layer_1-2" data-name="Layer 1"><circle class="cls-1" cx="197.5" cy="197.5" r="197.5"/><path class="cls-2" d="M291.39,108H103.61A12.52,12.52,0,0,0,91,120.39V131.6A12.48,12.48,0,0,0,103.52,144H114v96.6A12.48,12.48,0,0,0,126.52,253H192v27.53l-58.71,15.23a5.79,5.79,0,0,0-4.24,7.12A6.06,6.06,0,0,0,136.4,307l61.36-15.92h.48L259.6,307a6.06,6.06,0,0,0,7.35-4.11,5.79,5.79,0,0,0-4.24-7.12L204,280.53V253h64.45A12.49,12.49,0,0,0,281,240.6V144h10.39A12.52,12.52,0,0,0,304,131.61V120.39A12.52,12.52,0,0,0,291.39,108Zm-.14,25H103.76a.76.76,0,0,1-.76-.76V120.75a.76.76,0,0,1,.75-.75H291.24a.76.76,0,0,1,.76.76v11.49A.76.76,0,0,1,291.25,133Zm-23,108H126.76a.76.76,0,0,1-.76-.76V144H269v96.25A.76.76,0,0,1,268.25,241Z"/><path class="cls-2" d="M141.33,233.36a5.93,5.93,0,0,0,3.92-1.46l36.44-31.56,15.57,13.78a6,6,0,0,0,8.09-.14L245,176.26a5.75,5.75,0,0,0,.13-8.23,6,6,0,0,0-8.38-.12l-35.65,33.94L185.7,188.23a6,6,0,0,0-7.89,0l-40.4,35a5.73,5.73,0,0,0-.52,8.2A5.93,5.93,0,0,0,141.33,233.36Z"/></g></g></svg>