<svg xmlns="http://www.w3.org/2000/svg" xmlns:xlink="http://www.w3.org/1999/xlink" viewBox="0 0 395 395"><defs><style>.cls-1{fill:none;}.cls-2{fill:#f63818;}.cls-3{clip-path:url(#clip-path);}.cls-4{fill:#fff;}</style><clipPath id="clip-path"><rect class="cls-1" x="96" y="91" width="210" height="210"/></clipPath></defs><title>Asset 1</title><g id="Layer_2" data-name="Layer 2"><g id="Layer_1-2" data-name="Layer 1"><circle class="cls-2" cx="197.5" cy="197.5" r="197.5"/><g class="cls-3"><path class="cls-4" d="M307,188v-.08a8.7,8.7,0,0,0-3-6.49l-20.75-18a6.29,6.29,0,0,0-8.71.48,5.89,5.89,0,0,0,.5,8.47L286.13,182H180.23c-3-19.76-20.48-35-41.56-35-23.16,0-42,18.38-42,41s18.85,41,42,41c21.08,0,38.58-15.22,41.56-35h105.9L275,203.66a5.88,5.88,0,0,0-.49,8.47,6.2,6.2,0,0,0,4.59,2,6.26,6.26,0,0,0,4.11-1.53l20.75-18a8.7,8.7,0,0,0,3-6.49V188ZM138.17,217a29,29,0,1,1,28.28-35h-19a6.19,6.19,0,0,0-6.28,5.84,6,6,0,0,0,6,6.16h19.26A29,29,0,0,1,138.17,217Z"/><path class="cls-4" d="M227.12,144h64.72a6.17,6.17,0,0,0,6.27-5.84,6,6,0,0,0-6-6.16H226.84a6,6,0,0,0-6,6.16A6.17,6.17,0,0,0,227.12,144Z"/><path class="cls-4" d="M182,124h50.33a6.19,6.19,0,0,0,6.28-5.84,6,6,0,0,0-6-6.16H182.32a6.19,6.19,0,0,0-6.28,5.84,6,6,0,0,0,6,6.16Z"/><path class="cls-4" d="M253.89,124H263a6.17,6.17,0,0,0,6.27-5.84,6,6,0,0,0-6-6.16h-9.09a6.17,6.17,0,0,0-6.27,5.84A6,6,0,0,0,253.89,124Z"/><path class="cls-4" d="M184.34,144a6,6,0,0,0-6,6.73,6.18,6.18,0,0,0,6.21,5.27h8.86a6.17,6.17,0,0,0,6.21-5.27,6,6,0,0,0-6-6.73Z"/><path class="cls-4" d="M201.93,218a6,6,0,0,0,6-6.16,6.19,6.19,0,0,0-6.28-5.84h-8.8a6.19,6.19,0,0,0-6.28,5.84,6,6,0,0,0,6,6.16Z"/><path class="cls-4" d="M201.18,256H136.31a6.17,6.17,0,0,0-6.27,5.84,6,6,0,0,0,6,6.16h64.89a6.17,6.17,0,0,0,6.21-5.27A6,6,0,0,0,201.18,256Z"/><path class="cls-4" d="M246.11,235H195.78a6.17,6.17,0,0,0-6.27,5.84,6,6,0,0,0,6,6.16h50.36a6.17,6.17,0,0,0,6.21-5.27A6,6,0,0,0,246.11,235Z"/><path class="cls-4" d="M174.27,247a6,6,0,0,0,6-6.16A6.19,6.19,0,0,0,174,235h-8.8a6.18,6.18,0,0,0-6.28,5.84,6,6,0,0,0,6,6.16Z"/><path class="cls-4" d="M243.81,268h-9.08a6.17,6.17,0,0,0-6.27,5.84,6,6,0,0,0,6,6.16h9.08a6.18,6.18,0,0,0,6.28-5.84A6,6,0,0,0,243.81,268Z"/></g></g></g></svg>