<svg xmlns="http://www.w3.org/2000/svg" viewBox="0 0 116.44 129.72"><defs><style>.cls-1{fill:#d1d3d4;}</style></defs><title>author</title><g id="Layer_2" data-name="Layer 2"><g id="Layer_1-2" data-name="Layer 1"><path class="cls-1" d="M116.44,0c-.62,12.61-2,25.11-5.6,37.25-.83,2.78-2,5.46-3,8.15a2,2,0,0,1-1.25,1c-7.63,1.72-15.27,3.38-22.91,5-.19,0-.37.11-.83.25,6.19,4.73,12.76,6.72,20.47,4.87-.32.85-.56,1.58-.86,2.29C98,69.2,92.5,79,84.83,87.31a111.39,111.39,0,0,1-9.51,8.49,2.13,2.13,0,0,1-1.7.27c-6.65-1.81-13.28-3.68-20-5.56,1.35,5.59,4.71,9.85,10.31,13a52.27,52.27,0,0,1-5.27,2.37c-6.2,2-12.5,1.7-18.7.11-3.65-.93-7.19-2.33-10.76-3.57a1.51,1.51,0,0,0-1.69.2Q14.11,113.26.61,123.82l-.61.44a15.62,15.62,0,0,1,3.86-7.5c5.61-6,11.28-11.86,16.93-17.78,1.05-1.1,2.13-2.17,3.13-3.31a4,4,0,0,0,.76-1.54c3-11.46,9.2-20.84,18.06-28.63,11.41-10,22.7-20.19,34.05-30.28q15.36-13.66,30.75-27.3,4-3.57,8-7.17a5.62,5.62,0,0,0,.62-.75Z"/><path class="cls-1" d="M65.76,129.72a23.33,23.33,0,0,1-3.21-1.34,4.92,4.92,0,0,1-2-6.86c1-2.08.68-2.77-1.67-2.65a83.66,83.66,0,0,0-8.63,1.06c-7.9,1.28-15.78,2.63-23.67,3.95L4.42,127.61c-.25,0-.5.06-1.15.12a47.36,47.36,0,0,0,4.23-3.38c2.31-2.32,5.16-3,8.27-3.51,8.48-1.31,16.94-2.81,25.41-4.21,5.32-.87,10.63-1.76,16-2.52a9.36,9.36,0,0,1,6.1,1.19,5.07,5.07,0,0,1,2.21,6.93c-1,2.22-.83,2.73,1.7,2.67a48.92,48.92,0,0,0,7.12-.87c8.38-1.44,16.75-3,25.12-4.44,2.57-.46,5.14-.91,7.7-1.39,1.89-.35,3.11.3,3.38,1.86.25,1.39-.72,2.49-2.44,2.79l-37.82,6.64a1.25,1.25,0,0,0-.4.23Z"/></g></g></svg>