<svg width="49" height="49" viewBox="0 0 49 49" fill="none" xmlns="http://www.w3.org/2000/svg">
<path d="M41.6654 5.77886H38.5646V2.9939C38.5646 2.35938 38.0507 1.84546 37.4162 1.84546C36.7817 1.84546 36.2678 2.35938 36.2678 2.9939V5.77886H12.6099V2.9939C12.6099 2.35938 12.096 1.84546 11.4615 1.84546C10.827 1.84546 10.3131 2.35938 10.3131 2.9939V5.77886H7.21228C4.04618 5.77886 1.47009 8.39048 1.47009 11.5569V41.4091C1.47583 44.5702 4.04367 47.1284 7.2051 47.1226H41.6654C44.8268 47.1323 47.3975 44.5774 47.4076 41.4163V11.5569C47.4076 8.39048 44.8315 5.77886 41.6654 5.77886V5.77886ZM45.1107 41.4091C45.1064 43.3005 43.5693 44.83 41.678 44.8257H7.21228C5.32095 44.8369 3.77845 43.313 3.76697 41.4217V11.5569C3.76697 9.65699 5.31233 8.07573 7.21228 8.07573H10.3131V12.106C10.3131 12.7402 10.827 13.2545 11.4615 13.2545C12.096 13.2545 12.6099 12.7402 12.6099 12.106V8.07573H36.2678V12.106C36.2678 12.7402 36.7817 13.2545 37.4162 13.2545C38.0507 13.2545 38.5646 12.7402 38.5646 12.106V8.07573H41.6654C43.5654 8.07573 45.1107 9.65699 45.1107 11.5569V41.4091Z" fill="white" stroke="white"/>
<path d="M36.7813 27.5991H12.0963C11.4618 27.5991 10.9479 28.113 10.9479 28.7476C10.9479 29.3817 11.4618 29.896 12.0963 29.896H36.7813C37.4158 29.896 37.9297 29.3817 37.9297 28.7476C37.9297 28.113 37.4158 27.5991 36.7813 27.5991Z" fill="white" stroke="white"/>
<path d="M36.7813 35.8679H12.0963C11.4618 35.8679 10.9479 36.3818 10.9479 37.0164C10.9479 37.6505 11.4618 38.1648 12.0963 38.1648H36.7813C37.4158 38.1648 37.9297 37.6505 37.9297 37.0164C37.9297 36.3818 37.4158 35.8679 36.7813 35.8679Z" fill="white" stroke="white"/>
<path d="M12.0963 21.7422H25.4674C26.1019 21.7422 26.6158 21.2279 26.6158 20.5938C26.6158 19.9592 26.1019 19.4453 25.4674 19.4453H12.0963C11.4618 19.4453 10.9479 19.9592 10.9479 20.5938C10.9479 21.2279 11.4618 21.7422 12.0963 21.7422Z" fill="white" stroke="white"/>
</svg>
