<svg width="49" height="49" viewBox="0 0 49 49" fill="none" xmlns="http://www.w3.org/2000/svg">
<path d="M41.6653 5.77861H38.5645V2.99365C38.5645 2.35914 38.0506 1.84521 37.4161 1.84521C36.7816 1.84521 36.2676 2.35914 36.2676 2.99365V5.77861H12.6098V2.99365C12.6098 2.35914 12.0959 1.84521 11.4614 1.84521C10.8269 1.84521 10.3129 2.35914 10.3129 2.99365V5.77861H7.21216C4.04606 5.77861 1.46997 8.39023 1.46997 11.5567V41.4089C1.47571 44.57 4.04355 47.1281 7.20498 47.1224H41.6653C44.8267 47.1321 47.3974 44.5771 47.4075 41.4161V11.5567C47.4075 8.39023 44.8314 5.77861 41.6653 5.77861V5.77861ZM45.1106 41.4089C45.1063 43.3002 43.5692 44.8298 41.6778 44.8255H7.21216C5.32083 44.8366 3.77833 43.3128 3.76685 41.4215V11.5567C3.76685 9.65674 5.31221 8.07549 7.21216 8.07549H10.3129V12.1058C10.3129 12.7399 10.8269 13.2542 11.4614 13.2542C12.0959 13.2542 12.6098 12.7399 12.6098 12.1058V8.07549H36.2676V12.1058C36.2676 12.7399 36.7816 13.2542 37.4161 13.2542C38.0506 13.2542 38.5645 12.7399 38.5645 12.1058V8.07549H41.6653C43.5652 8.07549 45.1106 9.65674 45.1106 11.5567V41.4089Z" fill="#913F98" stroke="#913F98"/>
<path d="M36.7811 27.5991H12.0962C11.4617 27.5991 10.9478 28.113 10.9478 28.7476C10.9478 29.3817 11.4617 29.896 12.0962 29.896H36.7811C37.4157 29.896 37.9296 29.3817 37.9296 28.7476C37.9296 28.113 37.4157 27.5991 36.7811 27.5991Z" fill="#913F98" stroke="#913F98"/>
<path d="M36.7811 35.8677H12.0962C11.4617 35.8677 10.9478 36.3816 10.9478 37.0161C10.9478 37.6503 11.4617 38.1646 12.0962 38.1646H36.7811C37.4157 38.1646 37.9296 37.6503 37.9296 37.0161C37.9296 36.3816 37.4157 35.8677 36.7811 35.8677Z" fill="#913F98" stroke="#913F98"/>
<path d="M12.0962 21.7422H25.4672C26.1017 21.7422 26.6157 21.2279 26.6157 20.5938C26.6157 19.9592 26.1017 19.4453 25.4672 19.4453H12.0962C11.4617 19.4453 10.9478 19.9592 10.9478 20.5938C10.9478 21.2279 11.4617 21.7422 12.0962 21.7422Z" fill="#913F98" stroke="#913F98"/>
</svg>
