<?xml version="1.0" encoding="UTF-8" standalone="no"?>
<svg width="159px" height="61px" viewBox="0 0 159 61" version="1.1" xmlns="http://www.w3.org/2000/svg" xmlns:xlink="http://www.w3.org/1999/xlink">
    <!-- Generator: Sketch 3.6.1 (26313) - http://www.bohemiancoding.com/sketch -->
    <title>Group 8</title>
    <desc>Created with Sketch.</desc>
    <defs>
        <path id="path-1" d="M3.41463415e-05,41.6585366 L41.4256585,41.6585366 L41.4256585,0.230897561 L3.41463415e-05,0.230897561 L3.41463415e-05,41.6585366 L3.41463415e-05,41.6585366 Z"></path>
        <path id="path-3" d="M9.55323333,0.264 L0.0569,0.264 L0.0569,11.5528667 L9.55323333,11.5528667 L9.55323333,0.264 L9.55323333,0.264 Z"></path>
        <path id="path-5" d="M11.3467333,0.264 L0.1234,0.264 L0.1234,11.5528667 L11.3467333,11.5528667 L11.3467333,0.264 L11.3467333,0.264 Z"></path>
        <path id="path-7" d="M11.4786,0.264 L0.253266667,0.264 L0.253266667,11.5528667 L11.4786,11.5528667 L11.4786,0.264 L11.4786,0.264 Z"></path>
        <path id="path-9" d="M0.2366,11.3333333 L11.7859333,11.3333333 L11.7859333,0.141766667 L0.2366,0.141766667 L0.2366,11.3333333 L0.2366,11.3333333 Z"></path>
    </defs>
    <g id="Home" stroke="none" stroke-width="1" fill="none" fill-rule="evenodd">
        <g id="Homepage---Next-Economy---Default" transform="translate(-17.000000, -11.000000)">
            <g id="Desktop-/-Header">
                <g id="Group-8" transform="translate(17.000000, 11.000000)">
                    <g id="Page-1" transform="translate(59.000000, 0.000000)">
                        <g id="Group-3" transform="translate(0.000000, 0.110634)">
                            <mask id="mask-2" fill="white">
                                <use xlink:href="#path-1"></use>
                            </mask>
                            <g id="Clip-2"></g>
                            <path d="M20.7135463,37.6143122 C11.5220341,37.6143122 4.04398537,30.1362634 4.04398537,20.9447512 C4.04398537,11.7528976 11.5220341,4.27484878 20.7135463,4.27484878 C29.9054,4.27484878 37.3831073,11.7528976 37.3831073,20.9447512 C37.3831073,30.1362634 29.9054,37.6143122 20.7135463,37.6143122 M20.7135463,0.230897561 C9.29193659,0.230897561 3.41463415e-05,9.52314146 3.41463415e-05,20.9447512 C3.41463415e-05,32.3660195 9.29193659,41.6586049 20.7135463,41.6586049 C32.1341317,41.6586049 41.4256927,32.3660195 41.4256927,20.9447512 C41.4256927,9.52314146 32.1341317,0.230897561 20.7135463,0.230897561" id="Fill-1" fill="#00BEFF" mask="url(#mask-2)"></path>
                        </g>
                        <path d="M11.0071756,13.9650683 L18.0962976,21.0531659 L11.0064927,28.1457024 L13.7067854,30.8436049 L20.7965902,23.7538 L23.4944927,21.0531659 L20.7942,18.354922 L13.7067854,11.2675073 L11.0071756,13.9650683 Z" id="Fill-4" fill="#00D3A0"></path>
                        <path d="M19.3223561,13.9650683 L26.411478,21.0531659 L19.3206488,28.1457024 L22.0212829,30.8436049 L29.1117707,23.7538 L31.8106976,21.0531659 L29.109039,18.354922 L22.0212829,11.2675073 L19.3223561,13.9650683 Z" id="Fill-6" fill="#00D3A0"></path>
                    </g>
                    <g id="Page-1" transform="translate(0.000000, 49.000000)">
                        <path d="M61.0317,4.43596667 L59.4903667,5.97896667 L61.0327,7.51996667 L65.0830333,11.5709667 L66.6253667,10.0293 L62.5747,5.97896667 L66.6257,1.9273 L65.0830333,0.384633333 L61.0317,4.43596667 Z" id="Fill-1" fill="#00BEFF"></path>
                        <path d="M0,0.544666667 L0,2.369 L2.59033333,2.369 L2.59033333,11.4106667 L4.821,11.4106667 L4.821,2.369 L7.39566667,2.369 L7.39566667,0.544666667 L0,0.544666667 Z" id="Fill-2" fill="#00BEFF"></path>
                        <path d="M14.9541,0.544666667 L14.9541,5.13866667 L10.8327667,5.13866667 L10.8327667,0.544666667 L8.60043333,0.544666667 L8.60043333,11.4106667 L10.8327667,11.4106667 L10.8327667,6.963 L14.9541,6.963 L14.9541,11.4106667 L17.1847667,11.4106667 L17.1847667,0.544666667 L14.9541,0.544666667 Z" id="Fill-3" fill="#00BEFF"></path>
                        <path d="M19.0896,0.544666667 L19.0896,11.4106667 L26.4919333,11.4106667 L26.4919333,9.58566667 L21.3219333,9.58566667 L21.3219333,6.86566667 L26.4919333,6.86566667 L26.4919333,5.04133333 L21.3219333,5.04133333 L21.3219333,2.369 L26.4919333,2.369 L26.4919333,0.544666667 L19.0896,0.544666667 Z" id="Fill-4" fill="#00BEFF"></path>
                        <path d="M38.6382,0.544666667 L38.6382,7.32133333 L34.0928667,0.544666667 L31.8935333,0.544666667 L31.8935333,11.4106667 L34.1258667,11.4106667 L34.1258667,4.53566667 L38.6872,11.4106667 L40.8692,11.4106667 L40.8692,0.544666667 L38.6382,0.544666667 Z" id="Fill-5" fill="#00BEFF"></path>
                        <path d="M42.7581,0.544666667 L42.7581,11.4106667 L50.1591,11.4106667 L50.1591,9.58566667 L44.9891,9.58566667 L44.9891,6.86566667 L50.1591,6.86566667 L50.1591,5.04133333 L44.9891,5.04133333 L44.9891,2.369 L50.1591,2.369 L50.1591,0.544666667 L42.7581,0.544666667 Z" id="Fill-6" fill="#00BEFF"></path>
                        <path d="M67.7613,0.544666667 L67.7613,2.369 L70.3516333,2.369 L70.3516333,11.4106667 L72.5823,11.4106667 L72.5823,2.369 L75.1563,2.369 L75.1563,0.544666667 L67.7613,0.544666667 Z" id="Fill-7" fill="#00BEFF"></path>
                        <path d="M80.8722,0.544666667 L80.8722,11.4106667 L88.2748667,11.4106667 L88.2748667,9.58566667 L83.1052,9.58566667 L83.1052,6.86566667 L88.2748667,6.86566667 L88.2748667,5.04133333 L83.1052,5.04133333 L83.1052,2.369 L88.2748667,2.369 L88.2748667,0.544666667 L80.8722,0.544666667 Z" id="Fill-8" fill="#00BEFF"></path>
                        <g id="Group-29" transform="translate(50.666667, 0.069500)">
                            <g id="Group-11" transform="translate(39.000000, 0.000000)">
                                <mask id="mask-4" fill="white">
                                    <use xlink:href="#path-3"></use>
                                </mask>
                                <g id="Clip-10"></g>
                                <path d="M9.45656667,9.90753333 C8.20123333,11.0802 7.02923333,11.5528667 5.41623333,11.5528667 C3.8029,11.5528667 2.4839,10.9985333 1.5229,9.92386667 C0.593566667,8.8972 0.0569,7.43086667 0.0569,5.9322 C0.0569,2.6262 2.3049,0.263866667 5.44956667,0.263866667 C7.1259,0.263866667 8.26756667,0.7362 9.55323333,1.99053333 L8.10456667,3.4562 C7.22423333,2.6582 6.47523333,2.33253333 5.5629,2.33253333 C3.65723333,2.33253333 2.3209,3.7982 2.3209,5.88286667 C2.3209,7.96886667 3.72223333,9.48386667 5.67723333,9.48386667 C6.67023333,9.48386667 7.43623333,9.14186667 8.10456667,8.3762 L9.45656667,9.90753333 Z" id="Fill-9" fill="#00BEFF" mask="url(#mask-4)"></path>
                            </g>
                            <g id="Group-14" transform="translate(49.000000, 0.000000)">
                                <mask id="mask-6" fill="white">
                                    <use xlink:href="#path-5"></use>
                                </mask>
                                <g id="Clip-13"></g>
                                <path d="M9.96306667,2.08853333 C10.8907333,3.13086667 11.3467333,4.38486667 11.3467333,5.96486667 C11.3467333,9.06053333 8.87073333,11.5528667 5.7924,11.5528667 C2.6154,11.5528667 0.1234,9.09253333 0.1234,5.96486667 C0.1234,2.7402 2.5994,0.263866667 5.82473333,0.263866667 C7.4204,0.263866667 8.88673333,0.9152 9.96306667,2.08853333 M2.40306667,5.9322 C2.40306667,7.9532 3.85306667,9.49986667 5.74373333,9.49986667 C7.61673333,9.49986667 9.08273333,7.9532 9.08273333,5.9812 C9.08273333,3.8802 7.6814,2.33253333 5.76006667,2.33253333 C3.83773333,2.33253333 2.40306667,3.86386667 2.40306667,5.9322" id="Fill-12" fill="#00BEFF" mask="url(#mask-6)"></path>
                            </g>
                            <path d="M64.3367667,11.3411333 L62.1047667,11.3411333 L62.1047667,0.475133333 L64.3051,0.475133333 L68.8494333,7.2518 L68.8494333,0.475133333 L71.0811,0.475133333 L71.0811,11.3411333 L68.8984333,11.3411333 L64.3367667,4.46613333 L64.3367667,11.3411333 Z" id="Fill-15" fill="#00BEFF"></path>
                            <g id="Group-19" transform="translate(72.666667, 0.000000)">
                                <mask id="mask-8" fill="white">
                                    <use xlink:href="#path-7"></use>
                                </mask>
                                <g id="Clip-18"></g>
                                <path d="M10.0932667,2.08853333 C11.0226,3.13086667 11.4786,4.38486667 11.4786,5.96486667 C11.4786,9.06053333 9.00226667,11.5528667 5.92293333,11.5528667 C2.74693333,11.5528667 0.253266667,9.09253333 0.253266667,5.96486667 C0.253266667,2.7402 2.7296,0.263866667 5.95626667,0.263866667 C7.55193333,0.263866667 9.01793333,0.9152 10.0932667,2.08853333 M2.53493333,5.9322 C2.53493333,7.9532 3.98493333,9.49986667 5.87426667,9.49986667 C7.74693333,9.49986667 9.21293333,7.9532 9.21293333,5.9812 C9.21293333,3.8802 7.81293333,2.33253333 5.89026667,2.33253333 C3.96726667,2.33253333 2.53493333,3.86386667 2.53493333,5.9322" id="Fill-17" fill="#00BEFF" mask="url(#mask-8)"></path>
                            </g>
                            <g id="Group-22" transform="translate(85.666667, 0.333333)">
                                <mask id="mask-10" fill="white">
                                    <use xlink:href="#path-9"></use>
                                </mask>
                                <g id="Clip-21"></g>
                                <path d="M9.26093333,0.141766667 L6.0026,6.7401 L2.76126667,0.141766667 L0.2366,0.141766667 L0.2366,11.0077667 L2.46826667,11.0077667 L2.46826667,4.2311 L6.0026,11.3334333 L9.5536,4.2311 L9.5536,11.0077667 L11.7859333,11.0077667 L11.7859333,0.141766667 L9.26093333,0.141766667 Z" id="Fill-20" fill="#00BEFF" mask="url(#mask-10)"></path>
                            </g>
                            <path d="M105.318867,0.4751 L103.249867,4.23843333 L101.148533,0.4751 L98.4932,0.4751 L102.126867,6.55143333 L102.126867,11.3411 L104.357533,11.3411 L104.357533,6.55143333 L107.924533,0.4751 L105.318867,0.4751 Z" id="Fill-23" fill="#00BEFF"></path>
                            <path d="M0.0171,1.8579 L4.0671,5.90756667 L0.0164333333,9.9589 L1.55943333,11.5019 L5.6101,7.45056667 L7.15176667,5.90756667 L5.60876667,4.36656667 L1.55943333,0.316566667 L0.0171,1.8579 Z" id="Fill-25" fill="#00D3A0"></path>
                            <path d="M4.76776667,1.8579 L8.8181,5.90756667 L4.7671,9.9589 L6.31043333,11.5019 L10.3611,7.45056667 L11.9031,5.90756667 L10.3594333,4.36656667 L6.31043333,0.316566667 L4.76776667,1.8579 Z" id="Fill-27" fill="#00D3A0"></path>
                        </g>
                    </g>
                </g>
            </g>
        </g>
    </g>
</svg>