<svg width="51" height="48" viewBox="0 0 51 48" fill="none" xmlns="http://www.w3.org/2000/svg">
<path d="M47.9379 0H3.01756C1.35376 0 0 1.32826 0 2.96098V5.64011C0 7.27282 1.35376 8.60132 3.01756 8.60132H5.5432V31.6622C5.5432 33.295 6.89696 34.6233 8.56076 34.6233H24.0604V41.2076L10.1924 44.8509C9.4363 45.0497 8.98737 45.8122 9.18981 46.554C9.35941 47.1755 9.93212 47.5854 10.558 47.5854C10.6794 47.5854 10.8028 47.57 10.9255 47.5378L25.4217 43.7293C25.4404 43.73 25.4588 43.7321 25.4778 43.7321C25.4967 43.7321 25.5152 43.7301 25.5341 43.7293L40.0301 47.5378C40.1529 47.57 40.2762 47.5854 40.3975 47.5854C41.0234 47.5854 41.596 47.1755 41.7658 46.554C41.9681 45.8122 41.5193 45.0497 40.7632 44.8509L26.8951 41.2074V34.6233H42.3946C44.0585 34.6233 45.4121 33.295 45.4121 31.6622V8.60132H47.9379C49.6018 8.60132 50.9554 7.27294 50.9554 5.64011V2.96098C50.9554 1.32826 49.6018 0 47.9379 0ZM48.1208 5.6401C48.1208 5.73919 48.0388 5.81986 47.9379 5.81986H3.01756C2.9167 5.81986 2.83461 5.73919 2.83461 5.6401V2.96098C2.83461 2.86201 2.9167 2.78146 3.01756 2.78146H47.9379C48.0388 2.78146 48.1208 2.86201 48.1208 2.96098V5.6401ZM42.5775 31.6622C42.5775 31.7612 42.4955 31.8418 42.3946 31.8418H8.56076C8.46002 31.8418 8.37781 31.7612 8.37781 31.6622V8.60133H42.5775V31.6622Z" fill="white"/>
<path d="M11.984 29.9493C12.3173 29.9493 12.6521 29.8345 12.9215 29.6011L21.6361 22.052L25.3597 25.3484C25.9138 25.839 26.7604 25.8239 27.296 25.3141L36.7757 16.2908C37.3374 15.7561 37.351 14.8756 36.8061 14.3242C36.2611 13.773 35.3638 13.7595 34.8019 14.2944L26.274 22.4119L22.5958 19.1556C22.0607 18.6819 21.2487 18.6776 20.7084 19.1456L11.0453 27.516C10.4587 28.0243 10.4028 28.9032 10.9211 29.479C11.2011 29.7904 11.5916 29.9493 11.984 29.9493Z" fill="white"/>
<path d="M38.9721 13.5983C39.3453 13.5983 39.7103 13.45 39.9737 13.1904C40.2384 12.9319 40.3894 12.5738 40.3894 12.2076C40.3894 11.8414 40.2383 11.4833 39.9737 11.2237C39.7103 10.9652 39.3453 10.8169 38.9721 10.8169C38.599 10.8169 38.2339 10.9652 37.9695 11.2237C37.7062 11.4833 37.5549 11.8414 37.5548 12.2076C37.5548 12.5738 37.7062 12.9319 37.9695 13.1904C38.2339 13.45 38.5989 13.5983 38.9721 13.5983Z" fill="white"/>
</svg>
