<svg width="52" height="48" viewBox="0 0 52 48" fill="none" xmlns="http://www.w3.org/2000/svg">
<path d="M48.2626 0H3.34227C1.67847 0 0.324707 1.32826 0.324707 2.96098V5.64011C0.324707 7.27282 1.67847 8.60132 3.34227 8.60132H5.86791V31.6622C5.86791 33.295 7.22167 34.6233 8.88547 34.6233H24.3851V41.2076L10.5171 44.8509C9.76101 45.0497 9.31208 45.8122 9.51452 46.554C9.68412 47.1755 10.2568 47.5854 10.8827 47.5854C11.0041 47.5854 11.1275 47.57 11.2502 47.5378L25.7464 43.7293C25.7651 43.73 25.7835 43.7321 25.8025 43.7321C25.8214 43.7321 25.8399 43.7301 25.8588 43.7293L40.3548 47.5378C40.4776 47.57 40.6009 47.5854 40.7222 47.5854C41.3481 47.5854 41.9207 47.1755 42.0905 46.554C42.2928 45.8122 41.844 45.0497 41.088 44.8509L27.2199 41.2074V34.6233H42.7193C44.3832 34.6233 45.7368 33.295 45.7368 31.6622V8.60132H48.2626C49.9265 8.60132 51.2802 7.27294 51.2802 5.64011V2.96098C51.2802 1.32826 49.9265 0 48.2626 0ZM48.4455 5.6401C48.4455 5.73919 48.3635 5.81986 48.2626 5.81986H3.34227C3.2414 5.81986 3.15932 5.73919 3.15932 5.6401V2.96098C3.15932 2.86201 3.2414 2.78146 3.34227 2.78146H48.2626C48.3635 2.78146 48.4455 2.86201 48.4455 2.96098V5.6401ZM42.9022 31.6622C42.9022 31.7612 42.8203 31.8418 42.7193 31.8418H8.88547C8.78472 31.8418 8.70252 31.7612 8.70252 31.6622V8.60133H42.9022V31.6622Z" fill="#913F98"/>
<path d="M12.3087 29.9493C12.642 29.9493 12.9768 29.8345 13.2462 29.6011L21.9608 22.052L25.6844 25.3484C26.2385 25.839 27.0851 25.8239 27.6207 25.3141L37.1004 16.2908C37.6621 15.7561 37.6757 14.8756 37.1308 14.3242C36.5858 13.773 35.6885 13.7595 35.1266 14.2944L26.5987 22.4119L22.9205 19.1556C22.3854 18.6819 21.5734 18.6776 21.0331 19.1456L11.37 27.516C10.7834 28.0243 10.7275 28.9032 11.2458 29.479C11.5258 29.7904 11.9163 29.9493 12.3087 29.9493Z" fill="#913F98"/>
<path d="M39.2968 13.5983C39.6701 13.5983 40.035 13.45 40.2984 13.1904C40.5631 12.9319 40.7141 12.5738 40.7141 12.2076C40.7141 11.8414 40.563 11.4833 40.2984 11.2237C40.035 10.9652 39.6701 10.8169 39.2968 10.8169C38.9237 10.8169 38.5587 10.9652 38.2942 11.2237C38.0309 11.4833 37.8796 11.8414 37.8795 12.2076C37.8795 12.5738 38.0309 12.9319 38.2942 13.1904C38.5587 13.45 38.9236 13.5983 39.2968 13.5983Z" fill="#913F98"/>
</svg>
