<?xml version="1.0" encoding="utf-8"?>
<!-- Generator: Adobe Illustrator 19.0.0, SVG Export Plug-In . SVG Version: 6.00 Build 0)  -->
<svg version="1.1" id="Layer_1" xmlns="http://www.w3.org/2000/svg" xmlns:xlink="http://www.w3.org/1999/xlink" x="0px" y="0px"
	 viewBox="0 0 96 96" style="enable-background:new 0 0 96 96;" xml:space="preserve">
<style type="text/css">
	.st0{fill:#333333;}
</style>
<g id="XMLID_2_">
	<path id="XMLID_6_" class="st0" d="M45.9,52.2v12.7c0,1.8-0.6,3.3-1.9,4.5c-1.2,1.2-2.7,1.9-4.5,1.9H26.8c-1.8,0-3.3-0.6-4.5-1.9
		c-1.2-1.2-1.9-2.7-1.9-4.5V41.7c0-2.3,0.4-4.5,1.3-6.6c0.9-2.1,2.1-3.9,3.6-5.4c1.5-1.5,3.3-2.7,5.4-3.6c2.1-0.9,4.3-1.3,6.6-1.3
		h2.1c0.6,0,1.1,0.2,1.5,0.6s0.6,0.9,0.6,1.5v4.2c0,0.6-0.2,1.1-0.6,1.5c-0.4,0.4-0.9,0.6-1.5,0.6h-2.1c-2.3,0-4.3,0.8-6,2.5
		c-1.7,1.7-2.5,3.6-2.5,6v1.1c0,0.9,0.3,1.6,0.9,2.2c0.6,0.6,1.4,0.9,2.2,0.9h7.4c1.8,0,3.3,0.6,4.5,1.9
		C45.3,49,45.9,50.5,45.9,52.2z M75.5,52.2v12.7c0,1.8-0.6,3.3-1.9,4.5c-1.2,1.2-2.7,1.9-4.5,1.9H56.5c-1.8,0-3.3-0.6-4.5-1.9
		c-1.2-1.2-1.9-2.7-1.9-4.5V41.7c0-2.3,0.4-4.5,1.3-6.6c0.9-2.1,2.1-3.9,3.6-5.4c1.5-1.5,3.3-2.7,5.4-3.6c2.1-0.9,4.3-1.3,6.6-1.3
		h2.1c0.6,0,1.1,0.2,1.5,0.6c0.4,0.4,0.6,0.9,0.6,1.5v4.2c0,0.6-0.2,1.1-0.6,1.5c-0.4,0.4-0.9,0.6-1.5,0.6H67c-2.3,0-4.3,0.8-6,2.5
		c-1.7,1.7-2.5,3.6-2.5,6v1.1c0,0.9,0.3,1.6,0.9,2.2c0.6,0.6,1.4,0.9,2.2,0.9h7.4c1.8,0,3.3,0.6,4.5,1.9
		C74.9,49,75.5,50.5,75.5,52.2z"/>
</g>
</svg>
